<svg width="48" height="49" xmlns="http://www.w3.org/2000/svg">
 <defs>
  <linearGradient gradientTransform="matrix(1.9214632511138916,0,0,1,-21.31419277191162,-80.99999999999818)" gradientUnits="userSpaceOnUse" y2="24.4448" x2="14.9053" y1="24.4448" x1="26.7255" id="svg_1">
   <stop stop-color="#001B43"/>
   <stop stop-opacity="0" stop-color="white" offset="1"/>
  </linearGradient>
 </defs>
 <g>
  <title>Layer 1</title>
  <path stroke="null" fill="#001B43" d="m6.39479,40.2714c2.11704,4.0503 4.51735,5.5376 6.36095,5.5376c1.8436,0 4.2439,-1.4872 6.3609,-5.5376c2.042,-3.9066 3.3948,-9.5115 3.3948,-15.8669c0,-6.3554 -1.3528,-11.9603 -3.3948,-15.86693c-2.117,-4.05035 -4.5173,-5.53757 -6.3609,-5.53757c-1.8436,0 -4.24391,1.48722 -6.36094,5.53757c-2.04192,3.90663 -3.3948,9.51153 -3.3948,15.86693c0,6.3554 1.35288,11.9603 3.39479,15.8669zm-6.39479,-15.8669c0,13.4782 5.71094,24.4045 12.75574,24.4045c7.0448,0 12.7557,-10.9263 12.7557,-24.4045c0,-13.4782 -5.7109,-24.4045 -12.7557,-24.4045c-7.0448,0 -12.75574,10.9263 -12.75574,24.4045z" clip-rule="evenodd" fill-rule="evenodd" opacity="0.4"/>
  <path stroke="null" fill="#001B43" d="m17.51404,40.2714c2.1171,4.0503 4.5173,5.5376 6.361,5.5376c1.8436,0 4.2439,-1.4872 6.3609,-5.5376c2.0419,-3.9066 3.3948,-9.5115 3.3948,-15.8669c0,-6.3554 -1.3529,-11.9603 -3.3948,-15.86693c-2.117,-4.05035 -4.5173,-5.53757 -6.3609,-5.53757c-1.8437,0 -4.2439,1.48722 -6.361,5.53757c-2.0419,3.90663 -3.3948,9.51153 -3.3948,15.86693c0,6.3554 1.3529,11.9603 3.3948,15.8669zm-6.3948,-15.8669c0,13.4782 5.711,24.4045 12.7558,24.4045c7.0448,0 12.7557,-10.9263 12.7557,-24.4045c0,-13.4782 -5.7109,-24.4045 -12.7557,-24.4045c-7.0448,0 -12.7558,10.9263 -12.7558,24.4045z" clip-rule="evenodd" fill-rule="evenodd" opacity="0.7"/>
  <path stroke="null" fill="url(#svg_1)" d="m25.72134,35.9448c-6.3513,0 -11.5,-5.1487 -11.5,-11.5c0,-6.3513 5.1487,-11.5 11.5,-11.5c6.3512,0 11.5,5.1488 11.5,11.5c0,6.3513 -5.1488,11.5 -11.5,11.5z"/>
  <path stroke="null" fill="#001B43" d="m28.63344,40.2714c2.117,4.0503 4.5173,5.5376 6.3609,5.5376c1.8437,0 4.2439,-1.4872 6.361,-5.5376c2.0419,-3.9066 3.3948,-9.5115 3.3948,-15.8669c0,-6.3554 -1.3529,-11.9603 -3.3948,-15.86693c-2.1171,-4.05035 -4.5173,-5.53757 -6.361,-5.53757c-1.8436,0 -4.2439,1.48722 -6.3609,5.53757c-2.0419,3.90663 -3.3948,9.51153 -3.3948,15.86693c0,6.3554 1.3529,11.9603 3.3948,15.8669zm-6.3948,-15.8669c0,13.4782 5.7109,24.4045 12.7557,24.4045c7.0448,0 12.7558,-10.9263 12.7558,-24.4045c0,-13.4782 -5.711,-24.4045 -12.7558,-24.4045c-7.0448,0 -12.7557,10.9263 -12.7557,24.4045z" clip-rule="evenodd" fill-rule="evenodd"/>

 </g>
</svg>