<svg width="55" height="55" xmlns="http://www.w3.org/2000/svg">
 <defs>
  <linearGradient id="svg_1" x1="0.52713" y1="4.65457" x2="-0.46035" y2="4.65457">
   <stop stop-color="#001B43"/>
   <stop offset="1" stop-color="white" stop-opacity="0"/>
  </linearGradient>
 </defs>
 <g>
  <title>Layer 1</title>
  <g id="svg_2">
   <path id="svg_3" opacity="0.4" fill-rule="evenodd" clip-rule="evenodd" d="m10.01972,43.3669c2.11704,4.0503 4.51735,5.5376 6.36095,5.5376c1.8436,0 4.2439,-1.4872 6.3609,-5.5376c2.042,-3.9066 3.3948,-9.5115 3.3948,-15.8669c0,-6.3554 -1.3528,-11.9603 -3.3948,-15.86693c-2.117,-4.05035 -4.5173,-5.53757 -6.3609,-5.53757c-1.8436,0 -4.24391,1.48722 -6.36094,5.53757c-2.04192,3.90663 -3.3948,9.51153 -3.3948,15.86693c0,6.3554 1.35288,11.9603 3.39479,15.8669zm-6.39479,-15.8669c0,13.4782 5.71094,24.4045 12.75574,24.4045c7.0448,0 12.7557,-10.9263 12.7557,-24.4045c0,-13.4782 -5.7109,-24.4045 -12.7557,-24.4045c-7.0448,0 -12.75574,10.9263 -12.75574,24.4045z" fill="#001B43" stroke="null"/>
   <path id="svg_4" opacity="0.7" fill-rule="evenodd" clip-rule="evenodd" d="m21.13897,43.3669c2.1171,4.0503 4.5173,5.5376 6.361,5.5376c1.8436,0 4.2439,-1.4872 6.3609,-5.5376c2.0419,-3.9066 3.3948,-9.5115 3.3948,-15.8669c0,-6.3554 -1.3529,-11.9603 -3.3948,-15.86693c-2.117,-4.05035 -4.5173,-5.53757 -6.3609,-5.53757c-1.8437,0 -4.2439,1.48722 -6.361,5.53757c-2.0419,3.90663 -3.3948,9.51153 -3.3948,15.86693c0,6.3554 1.3529,11.9603 3.3948,15.8669zm-6.3948,-15.8669c0,13.4782 5.711,24.4045 12.7558,24.4045c7.0448,0 12.7557,-10.9263 12.7557,-24.4045c0,-13.4782 -5.7109,-24.4045 -12.7557,-24.4045c-7.0448,0 -12.7558,10.9263 -12.7558,24.4045z" fill="#001B43" stroke="null"/>
   <path id="svg_5" d="m29.34627,39.0403c-6.3513,0 -11.5,-5.1487 -11.5,-11.5c0,-6.3513 5.1487,-11.5 11.5,-11.5c6.3512,0 11.5,5.1488 11.5,11.5c0,6.3513 -5.1488,11.5 -11.5,11.5z" fill="url(#svg_1)" stroke="null"/>
   <path id="svg_6" fill-rule="evenodd" clip-rule="evenodd" d="m32.25837,43.3669c2.117,4.0503 4.5173,5.5376 6.3609,5.5376c1.8437,0 4.2439,-1.4872 6.361,-5.5376c2.0419,-3.9066 3.3948,-9.5115 3.3948,-15.8669c0,-6.3554 -1.3529,-11.9603 -3.3948,-15.86693c-2.1171,-4.05035 -4.5173,-5.53757 -6.361,-5.53757c-1.8436,0 -4.2439,1.48722 -6.3609,5.53757c-2.0419,3.90663 -3.3948,9.51153 -3.3948,15.86693c0,6.3554 1.3529,11.9603 3.3948,15.8669zm-6.3948,-15.8669c0,13.4782 5.7109,24.4045 12.7557,24.4045c7.0448,0 12.7558,-10.9263 12.7558,-24.4045c0,-13.4782 -5.711,-24.4045 -12.7558,-24.4045c-7.0448,0 -12.7557,10.9263 -12.7557,24.4045z" fill="#001B43" stroke="null"/>
  </g>
 </g>
</svg>