<svg width="234" height="49" viewBox="0 0 49 49" fill="none" xmlns="http://www.w3.org/2000/svg">
<path opacity="0.4" fill-rule="evenodd" clip-rule="evenodd" d="M7.07875 40.2714C9.19579 44.3217 11.5961 45.809 13.4397 45.809C15.2833 45.809 17.6836 44.3218 19.8006 40.2714C21.8426 36.3648 23.1954 30.7599 23.1954 24.4045C23.1954 18.0491 21.8426 12.4442 19.8006 8.53757C17.6836 4.48722 15.2833 3 13.4397 3C11.5961 3 9.19579 4.48722 7.07876 8.53757C5.03684 12.4442 3.68396 18.0491 3.68396 24.4045C3.68396 30.7599 5.03684 36.3648 7.07875 40.2714ZM0.683959 24.4045C0.683958 37.8827 6.3949 48.809 13.4397 48.809C20.4845 48.809 26.1954 37.8827 26.1954 24.4045C26.1954 10.9263 20.4845 -2.49633e-07 13.4397 -5.57571e-07C6.3949 -8.65509e-07 0.683959 10.9263 0.683959 24.4045Z" fill="#001B43"/>
<path opacity="0.7" fill-rule="evenodd" clip-rule="evenodd" d="M18.198 40.2714C20.3151 44.3217 22.7153 45.809 24.559 45.809C26.4026 45.809 28.8029 44.3218 30.9199 40.2714C32.9618 36.3648 34.3147 30.7599 34.3147 24.4045C34.3147 18.0491 32.9618 12.4442 30.9199 8.53757C28.8029 4.48722 26.4026 3 24.559 3C22.7153 3 20.3151 4.48722 18.198 8.53757C16.1561 12.4442 14.8032 18.0491 14.8032 24.4045C14.8032 30.7599 16.1561 36.3648 18.198 40.2714ZM11.8032 24.4045C11.8032 37.8827 17.5142 48.809 24.559 48.809C31.6038 48.809 37.3147 37.8827 37.3147 24.4045C37.3147 10.9263 31.6038 -2.49633e-07 24.559 -5.57571e-07C17.5142 -8.65509e-07 11.8032 10.9263 11.8032 24.4045Z" fill="#001B43"/>
<path d="M26.4053 35.9448C20.054 35.9448 14.9053 30.7961 14.9053 24.4448C14.9053 18.0935 20.054 12.9448 26.4053 12.9448C32.7565 12.9448 37.9053 18.0936 37.9053 24.4448C37.9053 30.7961 32.7565 35.9448 26.4053 35.9448Z" fill="url(#paint0_linear_4214:8454)"/>
<path fill-rule="evenodd" clip-rule="evenodd" d="M29.3174 40.2714C31.4344 44.3217 33.8347 45.809 35.6783 45.809C37.522 45.809 39.9222 44.3218 42.0393 40.2714C44.0812 36.3648 45.4341 30.7599 45.4341 24.4045C45.4341 18.0491 44.0812 12.4442 42.0393 8.53757C39.9222 4.48722 37.522 3 35.6783 3C33.8347 3 31.4344 4.48722 29.3174 8.53757C27.2755 12.4442 25.9226 18.0491 25.9226 24.4045C25.9226 30.7599 27.2755 36.3648 29.3174 40.2714ZM22.9226 24.4045C22.9226 37.8827 28.6335 48.809 35.6783 48.809C42.7231 48.809 48.4341 37.8827 48.4341 24.4045C48.4341 10.9263 42.7231 -2.49633e-07 35.6783 -5.57571e-07C28.6335 -8.65509e-07 22.9226 10.9263 22.9226 24.4045Z" fill="#001B43"/>
<defs>
<linearGradient id="paint0_linear_4214:8454" x1="26.7255" y1="24.4448" x2="14.9053" y2="24.4448" gradientUnits="userSpaceOnUse">
<stop stop-color="#001B43"/>
<stop offset="1" stop-color="white" stop-opacity="0"/>
</linearGradient>
</defs>
</svg>
